<?xml version="1.0" standalone="no"?>
<!DOCTYPE svg PUBLIC "-//W3C//DTD SVG 20010904//EN"
 "http://www.w3.org/TR/2001/REC-SVG-20010904/DTD/svg10.dtd">
<svg version="1.0" xmlns="http://www.w3.org/2000/svg"
 width="628.000000pt" height="628.000000pt" viewBox="0 0 628.000000 628.000000"
 preserveAspectRatio="xMidYMid meet">
<metadata>
Created by potrace 1.11, written by Peter Selinger 2001-2013
</metadata>
<g transform="translate(0.000000,628.000000) scale(0.100000,-0.100000)"
fill="#000000" stroke="none">
<path d="M0 3140 l0 -3140 3140 0 3140 0 0 3140 0 3140 -3140 0 -3140 0 0
-3140z m3175 2166 c172 -23 244 -39 380 -86 197 -68 323 -119 462 -186 128
-62 134 -67 228 -167 74 -78 107 -121 137 -182 52 -106 48 -119 -39 -135 -135
-25 -316 -104 -410 -179 -131 -103 -247 -306 -287 -503 -14 -66 -22 -198 -13
-198 2 0 39 20 83 45 142 80 180 96 256 104 47 6 163 40 328 96 270 91 525
168 600 180 40 7 43 6 32 -8 -7 -9 -37 -21 -65 -27 -91 -19 -250 -68 -540
-166 -182 -61 -307 -98 -353 -103 -83 -10 -136 -33 -316 -141 -61 -37 -69 -27
-70 82 -2 191 69 389 199 556 113 144 303 252 513 293 36 6 66 13 68 15 2 1
-12 35 -31 76 -26 56 -56 96 -127 171 -92 97 -97 101 -234 167 -160 78 -258
116 -471 188 -190 64 -368 92 -646 99 -319 9 -570 -27 -875 -127 -343 -113
-587 -237 -860 -440 -161 -119 -525 -499 -556 -580 -5 -14 -17 -33 -25 -42
-26 -29 -6 -21 82 32 103 62 152 80 220 80 l53 0 7 -47 c27 -188 195 -534 370
-763 23 -30 49 -69 58 -86 9 -18 66 -97 126 -178 l110 -146 -25 -46 c-14 -26
-21 -50 -17 -54 4 -4 34 -26 67 -50 52 -38 57 -40 52 -19 -5 16 31 -15 99 -85
58 -61 105 -114 105 -119 0 -5 -8 -3 -17 4 -10 7 1 -7 25 -32 23 -25 42 -48
42 -52 0 -15 -21 -6 -54 23 -19 17 -37 26 -40 21 -6 -9 -67 16 -221 90 -33 16
-91 52 -130 80 -82 60 -174 104 -317 153 l-103 35 -80 -20 c-44 -11 -81 -22
-83 -24 -2 -1 -7 -29 -12 -61 -5 -33 -14 -88 -20 -124 -20 -117 18 -297 90
-425 16 -27 55 -81 88 -120 67 -80 115 -150 197 -285 32 -52 77 -122 101 -155
24 -33 83 -115 131 -182 204 -281 534 -646 728 -801 78 -64 208 -135 323 -178
81 -31 90 -30 107 9 13 31 38 244 30 257 -9 15 -16 126 -10 166 6 40 9 44 34
44 16 0 46 7 66 16 25 10 50 13 74 9 64 -12 182 -54 255 -91 80 -41 239 -149
274 -187 53 -56 163 -56 262 -1 25 14 80 39 124 55 162 59 276 139 439 308
113 118 209 237 270 338 28 44 39 53 82 66 l50 15 -55 -6 c-86 -11 -180 -5
-246 16 -61 19 -104 14 -104 -13 0 -16 -255 -142 -324 -160 -173 -44 -381 -19
-565 68 -50 24 -171 139 -171 164 0 8 22 86 50 172 27 86 54 176 60 200 18 69
21 42 9 -70 -11 -97 -7 -286 7 -336 5 -19 13 -22 53 -21 33 1 93 -14 197 -50
175 -60 265 -75 376 -61 122 15 137 28 26 22 -121 -7 -186 5 -348 65 -96 36
-138 47 -182 47 -55 -1 -57 0 -63 30 -27 133 -13 368 35 583 17 73 30 159 30
192 0 88 -27 282 -56 398 -24 93 -26 117 -22 250 4 127 8 158 32 227 33 98 87
191 158 272 29 34 55 62 58 62 3 1 5 -36 5 -82 0 -185 66 -240 230 -188 105
33 129 51 206 151 148 193 334 354 459 395 27 9 98 20 157 25 59 5 128 15 154
23 86 28 200 89 244 130 42 41 70 103 59 132 -3 8 1 38 10 68 19 64 73 119
133 137 21 6 96 14 167 17 l128 6 -8 -24 c-16 -47 -6 -191 20 -292 45 -170 29
-323 -37 -358 -46 -25 -227 9 -380 72 -84 34 -102 35 -182 11 -160 -49 -225
-105 -210 -180 18 -93 20 -134 10 -232 l-11 -105 35 -70 c60 -124 132 -245
151 -255 45 -24 121 -30 175 -15 79 23 135 53 144 77 4 11 1 53 -6 92 -23 119
0 193 84 265 26 22 51 41 54 41 4 0 9 -35 11 -77 6 -94 31 -168 98 -285 100
-175 117 -265 67 -350 -35 -60 -79 -88 -227 -143 -247 -93 -370 -178 -427
-293 -37 -75 -39 -191 -5 -264 12 -26 22 -54 22 -63 0 -29 55 -75 89 -75 42 0
40 -17 -10 -78 -50 -63 -167 -159 -254 -207 -67 -38 -85 -53 -37 -32 46 21 95
48 157 89 47 31 53 33 29 11 -39 -35 -148 -103 -194 -121 -109 -42 -110 -43
-178 -145 -117 -175 -311 -386 -446 -486 -76 -57 -171 -107 -252 -135 -38 -13
-95 -37 -125 -55 -41 -23 -75 -33 -122 -38 -92 -8 -130 2 -183 48 -106 92
-357 239 -407 239 -8 0 -31 7 -50 15 -46 19 -84 19 -121 0 -15 -8 -36 -15 -46
-15 -24 0 -32 -48 -18 -109 17 -76 -4 -310 -32 -356 -28 -46 -47 -45 -174 6
-202 81 -295 147 -525 379 -278 279 -538 610 -757 963 -54 87 -131 197 -171
244 -129 153 -182 282 -190 463 -6 122 17 304 40 326 16 15 137 44 186 44 85
0 365 -120 471 -201 50 -39 238 -135 246 -126 2 2 -7 14 -21 27 -14 13 -25 33
-25 44 0 26 -38 66 -64 67 -32 1 -150 91 -154 117 -2 12 6 38 18 56 l20 34
-57 79 c-32 44 -78 106 -102 138 -25 32 -51 73 -59 89 -9 17 -36 58 -62 91
-164 208 -323 527 -363 724 -8 36 -20 69 -29 74 -24 15 -110 -17 -214 -79
-142 -85 -173 -70 -108 54 58 111 399 467 570 595 281 211 503 325 854 441
197 64 331 94 540 121 144 18 493 13 665 -9z m2274 -282 c31 -6 31 -7 31 -68
0 -75 -17 -111 -50 -111 -20 0 -27 8 -36 40 -14 44 -17 105 -8 129 7 18 16 19
63 10z m704 -298 c13 -32 19 -106 9 -106 -14 0 -59 54 -67 81 -11 33 46 57 58
25z m-1558 -177 c-8 -23 -15 -59 -15 -80 l0 -39 -45 0 -45 0 0 41 c0 68 40
117 97 118 22 1 22 0 8 -40z m1305 -195 c0 -67 -58 -254 -78 -254 -24 0 -72
84 -72 125 0 50 42 105 105 138 41 22 45 21 45 -9z m-421 -713 c58 -141 91
-269 98 -386 6 -102 -4 -321 -15 -310 -22 21 -31 87 -25 176 10 158 -29 341
-113 532 -19 43 -34 80 -34 82 0 5 34 12 41 8 4 -1 25 -47 48 -102z m-593
-475 c19 -39 37 -88 41 -110 6 -36 5 -38 -13 -28 -21 11 -184 300 -184 323 1
28 121 -116 156 -185z m549 -573 c-133 -304 -272 -546 -380 -658 -42 -44 -67
-67 -56 -51 23 32 27 56 9 56 -7 0 6 19 29 43 46 48 79 97 148 217 58 101 173
332 205 413 16 39 34 63 54 76 17 10 33 17 34 15 2 -1 -18 -51 -43 -111z
m-3844 -778 c38 -20 73 -43 76 -53 60 -179 254 -422 411 -515 135 -80 282
-137 354 -137 l38 0 0 -77 c0 -77 0 -78 -37 -110 -20 -18 -42 -33 -48 -33 -14
0 -133 41 -190 65 -79 33 -237 148 -328 238 -105 104 -187 209 -243 312 -21
39 -41 72 -45 75 -10 7 -59 157 -59 181 0 10 -4 21 -10 24 -17 10 -11 65 7 65
2 0 35 -16 74 -35z"/>
<path d="M4080 2896 c-151 -58 -269 -145 -365 -271 -70 -93 -159 -272 -179
-362 -17 -74 -22 -178 -8 -171 136 70 202 68 202 -7 0 -25 -9 -41 -40 -68 -42
-39 -109 -77 -135 -77 -20 0 -20 -3 15 -74 42 -87 93 -137 191 -185 66 -32 99
-43 156 -47 l71 -6 101 57 c122 69 161 99 224 173 56 66 136 190 142 221 2 12
6 25 9 30 3 4 8 30 10 58 3 27 12 78 20 113 29 123 17 282 -29 386 -34 77 -67
115 -152 181 -70 54 -79 57 -136 60 -35 1 -77 -3 -97 -11z"/>
<path d="M4025 1540 c-38 -25 -21 -25 25 0 19 11 28 19 20 20 -8 0 -28 -9 -45
-20z"/>
</g>
</svg>
